<svg xmlns="http://www.w3.org/2000/svg" viewBox="0 0 181.53 63.42"><defs><style>.cls-1{fill:#fff;}</style></defs><title>django</title><g id="Calque_2" data-name="Calque 2"><g id="Calque_2-2" data-name="Calque 2"><path class="cls-1" d="M21.4,0h9.93V46a65.26,65.26,0,0,1-12.89,1.36C6.32,47.31,0,41.83,0,31.32c0-10.12,6.7-16.7,17.08-16.7a15.74,15.74,0,0,1,4.32.52V0Zm0,23.13a9.77,9.77,0,0,0-3.35-.51c-5,0-7.93,3.09-7.93,8.5s2.77,8.19,7.87,8.19a23.46,23.46,0,0,0,3.41-.25Z"/><path class="cls-1" d="M47.12,15.33v23c0,7.92-.58,11.73-2.32,15s-3.74,5.15-8.12,7.34l-9.22-4.38c4.38-2.06,6.51-3.87,7.87-6.64s1.87-6.12,1.87-14.76V15.33ZM37.2.05h9.92V10.24H37.2Z"/><path class="cls-1" d="M53.12,17.59a29.74,29.74,0,0,1,13.15-3c5.09,0,8.45,1.36,9.93,4C77,20.1,77.29,22,77.29,26.16V46.34a109.82,109.82,0,0,1-14.18,1.09c-8.31,0-12-2.9-12-9.34,0-7,5-10.19,17.14-11.22V24.68c0-1.81-.9-2.45-3.41-2.45a26,26,0,0,0-11.67,3V17.59ZM68.66,33.38C62.08,34,60,35.06,60,37.64c0,1.93,1.23,2.83,3.94,2.83A27.68,27.68,0,0,0,68.66,40V33.38Z"/><path class="cls-1" d="M82.13,16.88a59.45,59.45,0,0,1,15.6-2.26c5.09,0,8.77,1.16,11,3.42s2.71,4.45,2.71,9.41V46.92h-9.93V27.84c0-3.81-1.29-5.22-4.84-5.22a14.88,14.88,0,0,0-4.57.7v23.6H82.13v-30Z"/><path class="cls-1" d="M115.26,52.33A22.53,22.53,0,0,0,125.89,55c6.51,0,9.29-2.65,9.29-9v-.2a13.57,13.57,0,0,1-6.45,1.36c-8.7,0-14.25-5.74-14.25-14.83,0-11.28,8.19-17.66,22.69-17.66a63.09,63.09,0,0,1,13,1.41l-3.4,7.17c-2.64-.52-.21-.07-2.21-.27v1l.13,4.19.07,5.42c.06,1.35.06,2.71.12,4.06v2.71c0,8.51-.7,12.5-2.83,15.79-3.1,4.84-8.45,7.22-16,7.22a28.45,28.45,0,0,1-10.7-1.93V52.33ZM135,22.68h-1a10.88,10.88,0,0,0-5.74,1.42c-2.38,1.35-3.61,3.8-3.61,7.28,0,5,2.45,7.8,6.84,7.8a12.24,12.24,0,0,0,3.74-.64V35.12c0-1.16-.07-2.45-.07-3.8l-.06-4.58L135,23.45v-.77Z"/><path class="cls-1" d="M165.54,14.49c9.93,0,16,6.26,16,16.38,0,10.38-6.32,16.89-16.37,16.89S149.1,41.5,149.1,31.45C149.1,21,155.42,14.49,165.54,14.49Zm-.19,25.27c3.8,0,6.06-3.16,6.06-8.64s-2.19-8.63-6-8.63-6.19,3.16-6.19,8.63S161.48,39.76,165.35,39.76Z"/></g></g></svg>