<svg id="Calque_1" data-name="Calque 1" xmlns="http://www.w3.org/2000/svg" xmlns:xlink="http://www.w3.org/1999/xlink" viewBox="0 0 589.83 361.24"><defs><style>.cls-1{fill:none;}.cls-2,.cls-4{fill:#689f63;}.cls-3{fill:#fff;}.cls-3,.cls-4{fill-rule:evenodd;}.cls-5{clip-path:url(#clip-path);}.cls-6{fill:url(#Dégradé_sans_nom);}.cls-7{clip-path:url(#clip-path-2);}.cls-8{fill:url(#Dégradé_sans_nom_2);}.cls-9{clip-path:url(#clip-path-3);}.cls-10{fill:url(#Dégradé_sans_nom_3);}</style><clipPath id="clip-path" transform="translate(0 0)"><path class="cls-1" d="M214.3,83.45l-56.17,32.42a6.79,6.79,0,0,0-3.4,5.88v64.89a6.76,6.76,0,0,0,3.4,5.87L214.3,225a6.8,6.8,0,0,0,6.79,0l56.17-32.45a6.79,6.79,0,0,0,3.38-5.87V121.75a6.79,6.79,0,0,0-3.4-5.88L221.08,83.45a6.87,6.87,0,0,0-6.8,0"/></clipPath><linearGradient id="Dégradé_sans_nom" x1="-664.09" y1="728.54" x2="-662.49" y2="728.54" gradientTransform="matrix(-50.75, 103.54, 103.54, 50.75, -108876.51, 31853.62)" gradientUnits="userSpaceOnUse"><stop offset="0.3" stop-color="#3e863d"/><stop offset="0.5" stop-color="#55934f"/><stop offset="0.8" stop-color="#5aad45"/></linearGradient><clipPath id="clip-path-2" transform="translate(0 0)"><path class="cls-1" d="M156.12,190.76a6.74,6.74,0,0,0,2,1.75l48.19,27.84,8,4.61a6.63,6.63,0,0,0,5.24.64l59.25-108.48a7.14,7.14,0,0,0-1.58-1.25L240.47,94.63,221,83.44a7,7,0,0,0-1.76-.7Z"/></clipPath><linearGradient id="Dégradé_sans_nom_2" x1="-662.64" y1="718.15" x2="-661.6" y2="718.15" gradientTransform="matrix(142.41, -105.22, -105.22, -142.41, 170074.03, 32754.47)" gradientUnits="userSpaceOnUse"><stop offset="0.57" stop-color="#3e863d"/><stop offset="0.72" stop-color="#619857"/><stop offset="1" stop-color="#76ac64"/></linearGradient><clipPath id="clip-path-3" transform="translate(0 0)"><path class="cls-1" d="M217,82.58a7,7,0,0,0-2.71.87l-56,32.33,60.4,110a6.78,6.78,0,0,0,2.41-.83l56.17-32.45a6.76,6.76,0,0,0,3.28-4.63L219,82.69a7,7,0,0,0-1.37-.13l-.56,0"/></clipPath><linearGradient id="Dégradé_sans_nom_3" x1="-658.85" y1="719.24" x2="-657.9" y2="719.24" gradientTransform="matrix(129.89, 0, 0, -129.89, 85735.11, 93576.11)" gradientUnits="userSpaceOnUse"><stop offset="0.16" stop-color="#6bbf47"/><stop offset="0.38" stop-color="#79b461"/><stop offset="0.47" stop-color="#75ac64"/><stop offset="0.7" stop-color="#659e5a"/><stop offset="0.9" stop-color="#3e863d"/></linearGradient></defs><title>nodejs</title><path class="cls-2" d="M291.53,361.24a11.25,11.25,0,0,1-5.59-1.49l-17.78-10.53c-2.66-1.49-1.36-2-.48-2.32a36.19,36.19,0,0,0,8-3.66,1.33,1.33,0,0,1,1.32.09l13.66,8.11a1.84,1.84,0,0,0,1.65,0l53.27-30.75a1.68,1.68,0,0,0,.81-1.44V257.78a1.7,1.7,0,0,0-.82-1.46L292.36,225.6a1.61,1.61,0,0,0-1.64,0l-53.23,30.72a1.68,1.68,0,0,0-.85,1.45v61.47a1.63,1.63,0,0,0,.83,1.42l14.59,8.43c7.92,4,12.76-.71,12.76-5.4V263a1.52,1.52,0,0,1,1.54-1.53h6.75a1.52,1.52,0,0,1,1.53,1.53v60.7c0,10.56-5.76,16.62-15.77,16.62-3.08,0-5.51,0-12.28-3.33l-14-8.05a11.26,11.26,0,0,1-5.59-9.72V257.77a11.2,11.2,0,0,1,5.59-9.71l53.32-30.76a11.72,11.72,0,0,1,11.2,0l53.25,30.78a11.22,11.22,0,0,1,5.59,9.7v61.47a11.27,11.27,0,0,1-5.59,9.71l-53.25,30.76a11.28,11.28,0,0,1-5.62,1.49" transform="translate(0 0)"/><path class="cls-2" d="M308,318.88c-23.3,0-28.19-10.69-28.19-19.67a1.53,1.53,0,0,1,1.54-1.53h6.88a1.54,1.54,0,0,1,1.52,1.3c1,7,4.14,10.55,18.23,10.55,11.23,0,16-2.54,16-8.49,0-3.43-1.36-6-18.8-7.68-14.59-1.44-23.6-4.65-23.6-16.32,0-10.75,9.07-17.15,24.25-17.15,17.06,0,25.51,5.92,26.58,18.64a1.56,1.56,0,0,1-1.55,1.68h-6.92a1.51,1.51,0,0,1-1.49-1.2c-1.67-7.37-5.7-9.73-16.64-9.73-12.26,0-13.68,4.27-13.68,7.47,0,3.88,1.68,5,18.21,7.2,16.37,2.17,24.15,5.24,24.15,16.74S324.79,319,307.91,319m64.88-65.19h1.78a1.56,1.56,0,0,0,1.75-1.63c0-1.57-1.08-1.57-1.68-1.57H372.8Zm-2.18-5h4c1.36,0,4,0,4,3a2.65,2.65,0,0,1-2.17,2.83c1.58.1,1.69,1.14,1.9,2.61a11.34,11.34,0,0,0,.6,3h-2.44c-.06-.53-.44-3.47-.44-3.63-.16-.65-.38-1-1.2-1h-2v4.61h-2.23Zm-4.76,5.73a8.61,8.61,0,1,0,8.58-8.58,8.62,8.62,0,0,0-8.58,8.58m18.88,0a10.27,10.27,0,1,1-10.27-10.27,10.3,10.3,0,0,1,10.27,10.27" transform="translate(0 0)"/><path class="cls-3" d="M126.58,120.73a6.81,6.81,0,0,0-3.41-5.92L66.7,82.31a6.61,6.61,0,0,0-3.11-.89H63a6.72,6.72,0,0,0-3.12.89L3.42,114.81A6.85,6.85,0,0,0,0,120.74l.12,87.52a3.37,3.37,0,0,0,1.7,3,3.22,3.22,0,0,0,3.38,0L38.78,192a6.88,6.88,0,0,0,3.41-5.92V145.17a6.78,6.78,0,0,1,3.41-5.9L59.89,131a6.83,6.83,0,0,1,6.81,0L81,139.26a6.81,6.81,0,0,1,3.42,5.91v40.88A6.9,6.9,0,0,0,87.82,192l33.55,19.22a3.36,3.36,0,0,0,3.41,0,3.42,3.42,0,0,0,1.69-2.95ZM393.07,166.3a1.71,1.71,0,0,1-.85,1.48L372.82,179a1.72,1.72,0,0,1-1.7,0l-19.4-11.18a1.71,1.71,0,0,1-.85-1.48V143.91a1.71,1.71,0,0,1,.84-1.48l19.38-11.2a1.71,1.71,0,0,1,1.72,0l19.4,11.2a1.69,1.69,0,0,1,.86,1.48ZM398.31.43a3.41,3.41,0,0,0-5.07,3V90.08a2.39,2.39,0,0,1-3.58,2.07L375.51,84a6.79,6.79,0,0,0-6.81,0l-56.5,32.6a6.82,6.82,0,0,0-3.41,5.9v65.22a6.84,6.84,0,0,0,3.41,5.91l56.5,32.63a6.86,6.86,0,0,0,6.82,0L432,193.62a6.85,6.85,0,0,0,3.42-5.91V25.15a6.85,6.85,0,0,0-3.51-6ZM586.44,143.32a6.84,6.84,0,0,0,3.39-5.9V121.61a6.84,6.84,0,0,0-3.4-5.9L530.3,83.13a6.8,6.8,0,0,0-6.84,0L467,115.73a6.8,6.8,0,0,0-3.42,5.9v65.2a6.86,6.86,0,0,0,3.44,5.94l56.12,32a6.81,6.81,0,0,0,6.7,0l33.94-18.86a3.41,3.41,0,0,0,0-5.94L507,167.38a3.4,3.4,0,0,1-1.72-2.95V144A3.37,3.37,0,0,1,507,141l17.68-10.2a3.34,3.34,0,0,1,3.4,0L545.72,141a3.38,3.38,0,0,1,1.71,2.94v16.08a3.41,3.41,0,0,0,5.12,2.95Z" transform="translate(0 0)"/><path class="cls-4" d="M526.05,140.27a1.28,1.28,0,0,1,1.31,0l10.84,6.25a1.31,1.31,0,0,1,.65,1.13v12.52a1.33,1.33,0,0,1-.65,1.14l-10.84,6.25a1.28,1.28,0,0,1-1.31,0l-10.83-6.25a1.31,1.31,0,0,1-.67-1.14V147.65a1.29,1.29,0,0,1,.65-1.13Z" transform="translate(0 0)"/><g class="cls-5"><path class="cls-6" d="M337.41,110.37,179.12,32.78,98,198.35l158.29,77.59Z" transform="translate(0 0)"/></g><g class="cls-7"><path class="cls-8" d="M87.69,133.32,199.45,284.59,347.27,175.38,235.49,24.11Z" transform="translate(0 0)"/></g><g class="cls-9"><path class="cls-10" d="M158.29,82.56V225.8H280.53V82.56Z" transform="translate(0 0)"/></g></svg>