<svg xmlns="http://www.w3.org/2000/svg" viewBox="0 0 97.58 86.9"><defs><style>.cls-1{fill:#61dafb;}</style></defs><title>react</title><g id="Calque_2" data-name="Calque 2"><g id="Calque_2-2" data-name="Calque 2"><path class="cls-1" d="M97.58,43.46c0-6.46-8.09-12.59-20.51-16.39,2.87-12.65,1.6-22.71-4-25.94A8.81,8.81,0,0,0,68.6,0V4.46A4.59,4.59,0,0,1,70.87,5c2.7,1.55,3.88,7.46,3,15.06-.22,1.87-.57,3.84-1,5.85a96.14,96.14,0,0,0-12.63-2.17,97.68,97.68,0,0,0-8.28-10c6.49-6,12.57-9.32,16.71-9.32V0h0C63.15,0,56,3.9,48.75,10.66,41.51,3.94,34.35.08,28.88.08V4.52C33,4.52,39.1,7.8,45.59,13.78a94.54,94.54,0,0,0-8.22,9.93A92.63,92.63,0,0,0,24.72,25.9c-.45-2-.79-3.92-1-5.77-.94-7.6.22-13.51,2.9-15.08a4.44,4.44,0,0,1,2.29-.52V.1h0a8.9,8.9,0,0,0-4.49,1.11c-5.59,3.23-6.85,13.27-4,25.88C8.06,30.91,0,37,0,43.46S8.1,56.05,20.51,59.85c-2.87,12.65-1.59,22.71,4,25.94A8.84,8.84,0,0,0,29,86.9c5.47,0,12.63-3.9,19.87-10.66C56.11,83,63.27,86.82,68.74,86.82a9,9,0,0,0,4.5-1.11c5.58-3.23,6.84-13.27,4-25.88C89.53,56,97.58,49.9,97.58,43.46ZM71.68,30.19C71,32.76,70,35.4,69,38.05c-.82-1.59-1.67-3.18-2.61-4.77s-1.89-3.15-2.86-4.66C66.35,29,69.08,29.56,71.68,30.19ZM62.57,51.38C61,54.06,59.43,56.61,57.78,59c-3,.26-6,.4-9,.4s-6-.14-8.95-.38c-1.65-2.36-3.26-4.89-4.81-7.55s-2.89-5.26-4.14-7.92c1.23-2.67,2.62-5.33,4.12-7.94S38.15,30.35,39.8,28c3-.26,6-.4,9-.4s6,.14,9,.38c1.65,2.36,3.26,4.89,4.81,7.55s2.89,5.25,4.14,7.92C65.44,46.11,64.07,48.77,62.57,51.38ZM69,48.79c1.07,2.67,2,5.33,2.74,7.92-2.6.63-5.35,1.17-8.19,1.59,1-1.53,2-3.1,2.86-4.72S68.18,50.38,69,48.79ZM48.83,70a81.45,81.45,0,0,1-5.53-6.36c1.79.08,3.62.14,5.47.14s3.72,0,5.53-.14A77.12,77.12,0,0,1,48.83,70ZM34,58.3c-2.82-.42-5.55-.94-8.15-1.57.73-2.57,1.65-5.21,2.68-7.86.82,1.59,1.67,3.18,2.61,4.77S33.06,56.79,34,58.3Zm14.7-41.39a81.45,81.45,0,0,1,5.53,6.36c-1.79-.08-3.62-.14-5.47-.14s-3.72,0-5.53.14A77.12,77.12,0,0,1,48.73,16.91ZM34,28.62c-1,1.53-1.95,3.1-2.86,4.72s-1.77,3.18-2.59,4.77c-1.07-2.67-2-5.33-2.74-7.92C28.42,29.58,31.17,29,34,28.62ZM16,53.52c-7-3-11.59-6.94-11.59-10.06S9,36.38,16,33.4a58.07,58.07,0,0,1,5.51-2A95,95,0,0,0,26,43.5a93.67,93.67,0,0,0-4.42,12A57.35,57.35,0,0,1,16,53.52ZM26.71,82c-2.7-1.55-3.88-7.46-3-15.06.22-1.87.58-3.84,1-5.85a96.14,96.14,0,0,0,12.63,2.17,97.68,97.68,0,0,0,8.28,9.95c-6.49,6-12.57,9.32-16.71,9.32A4.73,4.73,0,0,1,26.71,82ZM73.89,66.79c.94,7.6-.22,13.51-2.9,15.08a4.41,4.41,0,0,1-2.29.51c-4.12,0-10.22-3.28-16.71-9.26a94.54,94.54,0,0,0,8.22-9.93A92.63,92.63,0,0,0,72.86,61,58.1,58.1,0,0,1,73.89,66.79Zm7.66-13.27a58.07,58.07,0,0,1-5.51,2,95,95,0,0,0-4.48-12.11,93.67,93.67,0,0,0,4.42-12c2,.61,3.84,1.29,5.59,2,7,3,11.6,6.94,11.6,10.06S88.59,50.54,81.55,53.52Z"/><circle class="cls-1" cx="48.77" cy="43.46" r="9.09"/></g></g></svg>